sfk_cyclingleg_x_-0.1_y_-0.06_states
version=1
nRows=8
nColumns=53
inDegrees=yes

# SIMM Motion File Header:
name sfk_cyclingleg_x_-0.1_y_-0.06_states
datacolumns 53
datarows 8
otherdata 1
range 0.00000000 0.02404905
endheader
time	/jointset/bb/crank_angle/value	/jointset/bb/crank_angle/speed	/jointset/spindle/pedal_angle_r/value	/jointset/spindle/pedal_angle_r/speed	/jointset/ground_pelvis/pelvis_tilt/value	/jointset/ground_pelvis/pelvis_tilt/speed	/jointset/ground_pelvis/pelvis_list/value	/jointset/ground_pelvis/pelvis_list/speed	/jointset/ground_pelvis/pelvis_rotation/value	/jointset/ground_pelvis/pelvis_rotation/speed	/jointset/ground_pelvis/pelvis_tx/value	/jointset/ground_pelvis/pelvis_tx/speed	/jointset/ground_pelvis/pelvis_ty/value	/jointset/ground_pelvis/pelvis_ty/speed	/jointset/ground_pelvis/pelvis_tz/value	/jointset/ground_pelvis/pelvis_tz/speed	/jointset/hip_r/hip_angle_r/value	/jointset/hip_r/hip_angle_r/speed	/jointset/hip_r/hip_adduction_r/value	/jointset/hip_r/hip_adduction_r/speed	/jointset/hip_r/hip_rotation_r/value	/jointset/hip_r/hip_rotation_r/speed	/jointset/knee_r/knee_angle_r/value	/jointset/knee_r/knee_angle_r/speed	/jointset/knee_r/tib_tx_r/value	/jointset/knee_r/tib_tx_r/speed	/jointset/knee_r/tib_ty_r/value	/jointset/knee_r/tib_ty_r/speed	/jointset/tib_pat_r/pat_angle_r/value	/jointset/tib_pat_r/pat_angle_r/speed	/jointset/tib_pat_r/pat_tx_r/value	/jointset/tib_pat_r/pat_tx_r/speed	/jointset/tib_pat_r/pat_ty_r/value	/jointset/tib_pat_r/pat_ty_r/speed	/jointset/ankle_r/ankle_angle_r/value	/jointset/ankle_r/ankle_angle_r/speed	/jointset/subtalar_r/subtalar_angle_r/value	/jointset/subtalar_r/subtalar_angle_r/speed	/jointset/mtp_r/mtp_angle_r/value	/jointset/mtp_r/mtp_angle_r/speed	/forceset/bifemlh_r/activation	/forceset/bifemlh_r/fiber_length	/forceset/bifemsh_r/activation	/forceset/bifemsh_r/fiber_length	/forceset/glut_max2_r/activation	/forceset/glut_max2_r/fiber_length	/forceset/vas_int_r/activation	/forceset/vas_int_r/fiber_length	/forceset/med_gas_r/activation	/forceset/med_gas_r/fiber_length	/forceset/tib_ant_r/activation	/forceset/tib_ant_r/fiber_length
      0.00000000	    -10.13488126	   -480.13863232	      5.08324526	    609.28360712	      0.00000000	      0.00000000	     -0.00000000	      0.00000000	      0.00000000	     -0.00000000	     -0.10000000	      0.00000000	     -0.06000000	     -0.00000000	      0.00000000	     -0.00000000	     84.18020096	     30.97781779	      4.06686640	      1.45407638	     -3.93207262	     15.29771027	   -116.61812517	    145.28121996	     -0.00252710	      0.05063894	     -0.49496273	      0.04675124	     17.65118630	     -0.02968182	      0.02114510	      0.07201400	     -0.02433232	      0.01167483	     28.08976942	    -48.50450659	      0.00000000	     -0.00000000	      0.00000000	     -0.00000000	      0.05000000	      0.13900997	      0.05000000	      0.14471712	      0.05000000	      0.15556123	      0.05000000	      0.16103941	      0.05000000	      0.12993729	      0.05000000	      0.11044347
      0.00107264	    -10.64989867	   -480.13863232	      5.73652940	    608.79868366	      0.00000000	      0.00000000	     -0.00000000	     -0.00000000	     -0.00000000	     -0.00000000	     -0.10000000	      0.00000000	     -0.06000000	     -0.00000000	     -0.00000000	     -0.00000000	     84.21230914	     28.88890832	      4.06843686	      1.47409329	     -3.91557631	     15.46005065	   -116.46124691	    147.22427926	     -0.00247252	      0.05111518	     -0.49491222	      0.04742311	     17.65114994	     -0.03818991	      0.02122281	      0.07286490	     -0.02431972	      0.01180749	     28.03755158	    -48.85600563	      0.00000000	      0.00000000	      0.00000000	      0.00000000	      0.04923571	      0.13901075	      0.04923571	      0.14471907	      0.04923571	      0.15556218	      0.04923571	      0.16102769	      0.04923571	      0.12993885	      0.04923571	      0.11044496
      0.00549146	    -12.77154347	   -480.13863232	      8.42222539	    606.76463300	      0.00000000	      0.00000000	      0.00000000	      0.00000000	      0.00000000	      0.00000000	     -0.10000000	      0.00000000	     -0.06000000	     -0.00000000	     -0.00000000	     -0.00000000	     84.32089065	     20.24767790	      4.07512893	      1.55413511	     -3.84583166	     16.09912994	   -115.79324577	    155.07924004	     -0.00224254	      0.05294286	     -0.49469660	      0.05015883	     17.65089681	     -0.07755882	      0.02155233	      0.07625096	     -0.02426638	      0.01233012	     27.81871375	    -50.15142077	      0.00000000	      0.00000000	      0.00000000	      0.00000000	      0.04622302	      0.13903183	      0.04622302	      0.14476471	      0.04622302	      0.15558452	      0.04622302	      0.16083291	      0.04622302	      0.12997966	      0.04622302	      0.11049808
      0.00991028	    -14.89318827	   -480.13863232	     11.09882549	    604.68449759	      0.00000000	      0.00000000	      0.00000000	      0.00000000	     -0.00000000	      0.00000000	     -0.10000000	      0.00000000	     -0.06000000	     -0.00000000	     -0.00000000	     -0.00000000	     84.39119601	     11.56926970	      4.08216548	      1.62992899	     -3.77336760	     16.69103596	   -115.09107379	    162.68951850	     -0.00200495	      0.05455292	     -0.49446901	      0.05284055	     17.65045368	     -0.12427325	      0.02189640	      0.07944337	     -0.02421081	      0.01281318	     27.59468736	    -51.20541884	      0.00000000	      0.00000000	      0.00000000	      0.00000000	      0.04341559	      0.13908423	      0.04341559	      0.14485134	      0.04341559	      0.15562813	      0.04341559	      0.16049508	      0.04341559	      0.13006012	      0.04341559	      0.11067121
      0.01432909	    -17.01483307	   -480.13863232	     13.76616082	    602.57377225	      0.00000000	     -0.00000000	      0.00000000	      0.00000000	      0.00000000	      0.00000000	     -0.10000000	      0.00000000	     -0.06000000	     -0.00000000	     -0.00000000	     -0.00000000	     84.42312017	      2.88031823	      4.08952673	      1.70102649	     -3.69839030	     17.23685127	   -114.35582216	    170.05078629	     -0.00176074	      0.05594440	     -0.49422970	      0.05546520	     17.64978693	     -0.17862652	      0.02225414	      0.08244065	     -0.02415320	      0.01325519	     27.36652443	    -52.02494693	      0.00000000	      0.00000000	      0.00000000	      0.00000000	      0.04079700	      0.13916637	      0.04079700	      0.14495698	      0.04079700	      0.15567921	      0.04079700	      0.16024319	      0.04079700	      0.13015669	      0.04079700	      0.11092677
      0.01722005	    -18.40289399	   -480.13863232	     15.50616771	    601.18308290	      0.00000000	     -0.00000000	      0.00000000	      0.00000000	      0.00000000	      0.00000000	     -0.10000000	      0.00000000	     -0.06000000	     -0.00000000	     -0.00000000	     -0.00000000	     84.42323709	     -2.79778000	      4.09450814	      1.74480237	     -3.64807366	     17.56964906	   -113.85742188	    174.73047688	     -0.00159784	      0.05673656	     -0.49406691	      0.05715000	     17.64921559	     -0.21689285	      0.02249517	      0.08429577	     -0.02411449	      0.01352150	     27.21550211	    -52.43819953	      0.00000000	      0.00000000	      0.00000000	      0.00000000	      0.03917885	      0.13923204	      0.03917885	      0.14503280	      0.03917885	      0.15571143	      0.03917885	      0.16000005	      0.03917885	      0.13022433	      0.03917885	      0.11110329
      0.02099263	    -20.21425272	   -480.13863232	     17.77074426	    599.36360754	      0.00000000	     -0.00000000	      0.00000000	      0.00000000	      0.00000000	     -0.00000000	     -0.10000000	      0.00000000	     -0.06000000	     -0.00000000	     -0.00000000	     -0.00000000	     84.39873558	    -10.18651112	      4.10119303	      1.79846979	     -3.58101474	     17.97587780	   -113.18696898	    180.67380541	     -0.00138206	      0.05763033	     -0.49384722	      0.05930853	     17.64829984	     -0.26895727	      0.02281756	      0.08659096	     -0.02406287	      0.01384114	     27.01687474	    -52.83629136	      0.00000000	      0.00000000	      0.00000000	      0.00000000	      0.03717292	      0.13932497	      0.03717292	      0.14513864	      0.03717292	      0.15574868	      0.03717292	      0.15973312	      0.03717292	      0.13031899	      0.03717292	      0.11133169
      0.02404905	    -21.68176023	   -480.13863232	     19.60040160	    597.89023941	      0.00000000	      0.00000000	      0.00000000	      0.00000000	      0.00000000	     -0.00000000	     -0.10000000	      0.00000000	     -0.06000000	     -0.00000000	     -0.00000000	     -0.00000000	     84.35848659	    -16.14612122	      4.10675247	      1.83894845	     -3.52559936	     18.28237650	   -112.62757185	    185.35256001	     -0.00120496	      0.05823907	     -0.49366332	      0.06102290	     17.64741134	     -0.31263920	      0.02308492	      0.08834658	     -0.02402020	      0.01407652	     26.85503948	    -53.04556657	      0.00000000	      0.00000000	      0.00000000	      0.00000000	      0.03563056	      0.13940149	      0.03563056	      0.14523051	      0.03563056	      0.15577357	      0.03563056	      0.15947096	      0.03563056	      0.13040058	      0.03563056	      0.11151605
